<svg width="105" height="103" viewBox="0 0 105 103" fill="none" xmlns="http://www.w3.org/2000/svg">
<g clip-path="url(#clip0_175_112)">
<rect width="105" height="103" fill="white"/>
<path d="M80 90.992H68.2939V51.9741C68.2939 49.3881 66.4705 46.2138 64.2425 44.9166L23.4853 21.5774V8.01501L74.7797 37.4412C77.6493 39.108 80 43.2011 80 46.5386V90.992ZM59.4555 90.992H50.4909V62.3795C50.4909 60.4009 49.0949 57.9662 47.3893 56.9763L23.4853 43.3553V32.9926L55.4565 51.2538C57.6553 52.5282 59.4555 55.6607 59.4555 58.2154V90.992ZM0 1.33108e-05V102.975H105.662V1.33108e-05H0Z" fill="#100F0D"/>
<path d="M41.6816 81.9449C41.6816 86.9424 37.6513 90.9921 32.6821 90.9921C27.715 90.9921 23.6847 86.9424 23.6847 81.9449C23.6847 76.9487 27.715 72.8994 32.6821 72.8994C37.6513 72.8994 41.6816 76.9487 41.6816 81.9449Z" fill="#6EA6BE"/>
</g>
<defs>
<clipPath id="clip0_175_112">
<rect width="105" height="103" fill="white"/>
</clipPath>
</defs>
</svg>
